<svg xmlns="http://www.w3.org/2000/svg" width="38" height="60" viewBox="0 0 38 60">
    <g fill="none" fill-rule="evenodd">
        <path fill="#47318F" d="M.98 58l1.563-1.853c1.082.884 2.216 1.445 3.59 1.445 1.082 0 1.735-.425 1.735-1.122v-.034c0-.663-.413-1.003-2.422-1.513-2.422-.612-3.985-1.275-3.985-3.638v-.034c0-2.158 1.752-3.586 4.208-3.586 1.752 0 3.246.543 4.466 1.512L8.76 51.15c-1.065-.73-2.113-1.173-3.126-1.173s-1.546.46-1.546 1.037v.034c0 .782.515 1.037 2.593 1.564 2.44.629 3.813 1.496 3.813 3.57v.034c0 2.363-1.82 3.689-4.414 3.689-1.82 0-3.658-.63-5.1-1.904M11.389 53.818v-.034c0-3.383 2.576-6.154 6.269-6.154 2.267 0 3.624.749 4.74 1.836l-1.683 1.921c-.928-.833-1.872-1.343-3.074-1.343-2.027 0-3.487 1.666-3.487 3.706v.034c0 2.04 1.425 3.74 3.487 3.74 1.373 0 2.215-.544 3.16-1.394l1.683 1.683c-1.237 1.308-2.61 2.124-4.93 2.124-3.537 0-6.165-2.702-6.165-6.12M28.461 53.835c1.323 0 2.095-.782 2.095-1.802V52c0-1.173-.824-1.802-2.146-1.802h-2.044v3.638h2.095zm-4.74-6h4.912c2.868 0 4.603 1.683 4.603 4.113v.034c0 2.754-2.164 4.182-4.86 4.182h-2.01v3.57H23.72v-11.9zM34.438 59.733h2.645V47.835h-2.645z"/>
        <path fill="#FDD900" d="M31.357 16.049c1.752 0 3.186 1.419 3.186 3.153v21.267c0 1.735-1.434 3.153-3.186 3.153H8.673c-1.752 0-3.186-1.418-3.186-3.153V19.781"/>
        <path fill="#47318F" d="M31.357 44.445H8.673c-2.215 0-4.017-1.783-4.017-3.976V19.781c0-.454.372-.822.831-.822.46 0 .831.368.831.822V40.47c0 1.285 1.057 2.33 2.355 2.33h22.684c1.298 0 2.354-1.045 2.354-2.33V19.202c0-1.285-1.056-2.33-2.354-2.33a.827.827 0 0 1-.831-.823c0-.454.372-.823.83-.823 2.215 0 4.018 1.784 4.018 3.976v21.267c0 2.193-1.803 3.976-4.017 3.976"/>
        <path fill="#EEA220" d="M5.487 13.564v26.905c0 1.735 1.434 3.153 3.186 3.153h7.385v-11.73l-1.997-.039h10.327s-1.473-.73-2.166-3.701c-.173-1.23.208 4.42 4.467 4.42 4.26 0 7.854-.038 7.854-.038v-5.53l-9.208-3.838-.078-.039c-2.809-1.2-3.07-3.098-3.07-3.098l-.328-1.302"/>
        <path fill="#47318F" d="M16.058 44.445H8.673c-2.215 0-4.017-1.783-4.017-3.976V13.564c0-.454.372-.823.831-.823.46 0 .831.369.831.823v26.905c0 1.285 1.057 2.33 2.355 2.33h6.554V32.7l-1.182-.023a.827.827 0 0 1-.815-.83.827.827 0 0 1 .831-.815h8.416a6.606 6.606 0 0 1-.154-.25c-.75-1.276-.955-2.557-.964-2.756a.835.835 0 0 1 .755-.867c.184-.017.787-.005.925.839.283 1.197.696 1.967 1.047 2.443.2.261.42.483.657.667a.826.826 0 0 1 .232.163c.5.32 1.073.48 1.714.48 3.014 0 5.719-.02 7.022-.03V27.55l-8.699-3.627a.779.779 0 0 1-.049-.022l-.058-.029c-1.625-.699-2.49-1.631-2.93-2.292-.439-.658-.568-1.194-.602-1.385l-.32-1.27a.832.832 0 0 1 1.613-.399l.328 1.303c.009.036.012.047.016.082.026.13.347 1.508 2.576 2.46a.834.834 0 0 1 .043.02l.054.027 9.182 3.828a.822.822 0 0 1 .508.758v5.53c0 .45-.366.817-.821.822-.036 0-3.648.038-7.863.038-.963 0-1.833-.244-2.588-.72h-7.212v10.947a.827.827 0 0 1-.83.823"/>
        <path fill="#EEA220" d="M13.344 3.71c1.086-1.087 2.503-2.245 4.079-2.887 1.146 1.453 2.072 2.713 2.772 3.954"/>
        <path fill="#47318F" d="M20.196 5.6a.832.832 0 0 1-.726-.422c-.533-.945-1.216-1.936-2.3-3.335-1.055.53-2.141 1.35-3.236 2.445a.837.837 0 0 1-1.175.006.817.817 0 0 1-.006-1.164c1.45-1.45 2.915-2.482 4.353-3.068a.836.836 0 0 1 .972.255c1.008 1.278 2.051 2.655 2.843 4.058a.818.818 0 0 1-.32 1.12.835.835 0 0 1-.405.104"/>
        <path fill="#F1CF98" d="M19.082 31.853l3.833 11.77h-6.857v-11.77z"/>
        <path fill="#47318F" d="M16.89 42.8h4.884l-3.297-10.124h-1.588V42.8zm6.024 1.645h-6.856a.827.827 0 0 1-.831-.822v-11.77c0-.454.372-.822.831-.822h3.024c.361 0 .68.23.791.57l3.833 11.77a.815.815 0 0 1-.12.736.834.834 0 0 1-.672.338zM33.348 28.852c-.289 0-.596-.004-.866-.016a1.724 1.724 0 0 1-1.684-1.525.894.894 0 0 1-.004-.085v-1.343c0-.492.403-.891.9-.891.498 0 .9.399.9.891v1.174c.718.03 1.753-.001 1.763-.001a.897.897 0 0 1 .928.862.895.895 0 0 1-.871.919c-.03 0-.515.015-1.066.015z"/>
        <path fill="#28AAE1" d="M2.306 12.911c-.45 1.718-.813 3.546-.385 5.37L.94 19.467l.443 1.884 3.459-.797.914-.437"/>
        <path fill="#47318F" d="M1.382 22.175a.838.838 0 0 1-.44-.124.822.822 0 0 1-.37-.512L.13 19.654a.816.816 0 0 1 .167-.708l.732-.884c-.33-1.841.029-3.659.474-5.357a.832.832 0 0 1 1.609.413c-.49 1.871-.743 3.434-.38 4.976a.816.816 0 0 1-.167.708l-.723.873.162.69 2.559-.59.831-.398a.835.835 0 0 1 1.11.383c.2.409.027.9-.386 1.098l-.915.438a.838.838 0 0 1-.173.06l-3.459.797a.839.839 0 0 1-.188.022M19.847 23.856a.827.827 0 0 1-.832-.822c0-.997-.8-1.809-1.784-1.809s-1.784.812-1.784 1.809a.827.827 0 0 1-.831.822.827.827 0 0 1-.832-.822 3.454 3.454 0 0 1 3.447-3.454c1.9 0 3.447 1.55 3.447 3.454a.827.827 0 0 1-.831.822M30.308 23.856a.827.827 0 0 1-.831-.822c0-.997-.8-1.809-1.784-1.809s-1.785.812-1.785 1.809a.827.827 0 0 1-.83.822.827.827 0 0 1-.832-.822 3.454 3.454 0 0 1 3.447-3.454c1.9 0 3.446 1.55 3.446 3.454a.827.827 0 0 1-.831.822"/>
        <path fill="#28AAE1" d="M14.257 16.003s.279.577 1.157 1.184c1.345.928 4.017 1.183 5.174 1.006l1.27-.195 10.76-1.68-5.568-2.714c-1.787-7.598-8.442-11.24-15.227-9.677-.752.173-1.473.406-2.16.691"/>
        <path fill="#47318F" d="M19.789 19.064c-1.43 0-3.573-.321-4.85-1.203-1.03-.71-1.394-1.425-1.432-1.504l1.5-.708-.007-.014c.003.004.23.421.89.877 1.078.744 3.479 1.035 4.57.868l1.272-.195 8.167-1.275-3.216-1.568a.824.824 0 0 1-.442-.551c-.807-3.432-2.663-6.115-5.366-7.76-2.57-1.565-5.718-2.027-8.864-1.303-.694.16-1.376.378-2.025.649a.834.834 0 0 1-1.088-.44.82.82 0 0 1 .444-1.077 14.408 14.408 0 0 1 2.292-.734c3.575-.823 7.166-.29 10.112 1.504 2.943 1.791 5.07 4.766 6.019 8.406l5.22 2.545a.82.82 0 0 1-.238 1.55l-10.759 1.68-1.273.194a6.322 6.322 0 0 1-.926.059"/>
        <path fill="#EEA220" d="M7.54 21.983S-2.642 13.62 4.56 1.282c5.957 2.879 9.489 7.051 9.697 14.767"/>
        <path fill="#47318F" d="M7.538 22.805a.832.832 0 0 1-.53-.19c-.11-.09-2.713-2.255-4.417-6.02C1.01 13.105-.055 7.545 3.84.871A.836.836 0 0 1 4.927.543c6.829 3.3 9.963 8.076 10.162 15.484a.826.826 0 0 1-.809.844.828.828 0 0 1-.852-.8C13.25 9.52 10.689 5.383 4.9 2.374c-2.484 4.618-2.76 9.153-.819 13.49 1.538 3.435 3.966 5.466 3.99 5.486.352.291.4.81.107 1.159a.833.833 0 0 1-.64.296"/>
        <path fill="#EEA220" d="M6.5 8.685s2.771 3.838 3.117 8.431"/>
        <path fill="#47318F" d="M9.616 17.939a.828.828 0 0 1-.828-.762C8.464 12.88 5.85 9.2 5.824 9.162a.817.817 0 0 1 .194-1.147.836.836 0 0 1 1.159.192c.119.164 2.91 4.08 3.269 8.848a.825.825 0 0 1-.83.884M25.904 12.155l-2.465.431a1.426 1.426 0 0 1-1.65-1.142l-.587-3.295a1.414 1.414 0 0 1 1.154-1.632l2.465-.431c.77-.135 1.513.38 1.649 1.142l.588 3.295a1.414 1.414 0 0 1-1.154 1.632"/>
        <path fill="#47318F" d="M25.096 6.881a.542.542 0 0 0-.093.008l-2.54.444a.556.556 0 0 0-.45.636l.602 3.37a.554.554 0 0 0 .642.445l2.54-.445a.55.55 0 0 0 .45-.636l-.602-3.369a.562.562 0 0 0-.55-.453m-1.937 6.556c-.45 0-.89-.137-1.267-.399a2.176 2.176 0 0 1-.913-1.414l-.601-3.37a2.198 2.198 0 0 1 1.797-2.54l2.54-.445c1.203-.21 2.355.588 2.568 1.779l.6 3.37a2.16 2.16 0 0 1-.367 1.637c-.34.481-.848.802-1.43.904l-2.54.444a2.26 2.26 0 0 1-.387.034"/>
        <path fill="#FFF" d="M25.927 12.151l-.72.126a1.403 1.403 0 0 1-1.623-1.123l-.596-3.34a1.39 1.39 0 0 1 1.135-1.606l.72-.126a1.403 1.403 0 0 1 1.623 1.123l.596 3.34a1.391 1.391 0 0 1-1.135 1.606"/>
        <path fill="#47318F" d="M25.096 6.881a.542.542 0 0 0-.093.008l-.75.131a.556.556 0 0 0-.45.636l.602 3.37a.554.554 0 0 0 .642.445l.75-.132a.55.55 0 0 0 .45-.636l-.602-3.369a.562.562 0 0 0-.55-.453m-.147 6.243c-.45 0-.89-.137-1.267-.398a2.176 2.176 0 0 1-.913-1.415l-.601-3.37a2.198 2.198 0 0 1 1.797-2.54l.75-.132c1.202-.21 2.355.588 2.568 1.779l.6 3.37a2.16 2.16 0 0 1-.367 1.637c-.34.481-.848.802-1.43.904l-.749.13c-.13.023-.26.035-.388.035"/>
    </g>
</svg>
