<svg xmlns="http://www.w3.org/2000/svg" width="96" height="154" viewBox="0 0 96 154">
    <g fill="none" fill-rule="nonzero">
        <path fill="#FFF" d="M3 148.964l4.026-4.819c2.787 2.299 5.709 3.758 9.248 3.758 2.787 0 4.47-1.105 4.47-2.918v-.088c0-1.724-1.065-2.608-6.24-3.934-6.239-1.591-10.265-3.315-10.265-9.46v-.088c0-5.611 4.513-9.324 10.84-9.324 4.513 0 8.361 1.412 11.504 3.931l-3.542 5.13c-2.743-1.898-5.443-3.05-8.052-3.05-2.61 0-3.983 1.197-3.983 2.697v.088c0 2.034 1.327 2.697 6.68 4.067 6.285 1.635 9.822 3.89 9.822 9.282v.089c0 6.144-4.689 9.592-11.37 9.592-4.689 0-9.423-1.638-13.138-4.95v-.003zm26.813-10.874V138c0-8.796 6.636-16.001 16.149-16.001 5.84 0 9.335 1.948 12.21 4.774l-4.335 4.995c-2.39-2.166-4.823-3.492-7.919-3.492-5.221 0-8.982 4.332-8.982 9.636V138c0 5.305 3.67 9.725 8.982 9.725 3.537 0 5.706-1.415 8.14-3.625l4.336 4.376c-3.187 3.401-6.724 5.523-12.7 5.523-9.111 0-15.88-7.026-15.88-15.913v.003zm43.977.044c3.408 0 5.397-2.033 5.397-4.686v-.085c0-3.05-2.123-4.686-5.528-4.686h-5.266v9.46h5.397v-.003zm-12.21-15.601h12.653c7.388 0 11.857 4.376 11.857 10.694v.089c0 7.16-5.574 10.874-12.519 10.874h-5.178v9.282h-6.816V122.53l.003.003zm27.607 30.937H96v-30.937h-6.813v30.937z"/>
        <path fill="#FDD900" d="M80.776 41C85.3 41 89 44.654 89 49.119v54.762c0 4.468-3.701 8.119-8.224 8.119H22.224C17.7 112 14 108.349 14 103.881V50.61"/>
        <path fill="#47318F" d="M80.67 114H22.33C16.635 114 12 109.423 12 103.794V50.692c0-1.165.957-2.11 2.137-2.11 1.183 0 2.137.945 2.137 2.11v53.105c0 3.298 2.719 5.98 6.057 5.98h58.338c3.338 0 6.054-2.682 6.054-5.98V49.206c0-3.299-2.716-5.981-6.054-5.981a2.129 2.129 0 0 1-2.137-2.113c0-1.165.957-2.112 2.135-2.112C86.363 39 91 43.58 91 49.206v54.588C91 109.424 86.363 114 80.67 114"/>
        <path fill="#EEA220" d="M14 35v68.923c0 4.444 3.701 8.077 8.224 8.077h19.062V81.951l-5.155-.1h26.657s-3.802-1.87-5.591-9.48c-.447-3.152.537 11.322 11.53 11.322 10.996 0 20.273-.097 20.273-.097V69.429l-23.768-9.831-.201-.1c-7.25-3.074-7.925-7.937-7.925-7.937l-.846-3.335"/>
        <path fill="#47318F" d="M41.324 114H22.331C16.635 114 12 109.445 12 103.842v-68.74c0-1.16.957-2.102 2.137-2.102 1.183 0 2.137.943 2.137 2.103v68.739c0 3.283 2.719 5.953 6.057 5.953h16.856V83.993l-3.04-.059a2.12 2.12 0 0 1-2.096-2.12 2.12 2.12 0 0 1 2.137-2.083h21.645c-.137-.21-.269-.423-.396-.638-1.929-3.26-2.456-6.533-2.48-7.042a2.138 2.138 0 0 1 1.943-2.215c.473-.043 2.024-.012 2.379 2.144.727 3.058 1.79 5.025 2.692 6.241a9.349 9.349 0 0 0 1.69 1.705c.222.103.423.244.597.416 1.286.818 2.76 1.226 4.408 1.226 7.752 0 14.708-.05 18.06-.076V70.835L64.353 61.57a2.01 2.01 0 0 1-.126-.057l-.15-.074c-4.179-1.785-6.403-4.167-7.535-5.855-1.129-1.682-1.46-3.05-1.548-3.539L54.17 48.8a2.126 2.126 0 0 1 1.588-2.462 2.142 2.142 0 0 1 2.56 1.443l.844 3.329c.023.092.03.12.041.21.067.332.892 3.852 6.625 6.285l.11.05.14.07 23.614 9.78A2.1 2.1 0 0 1 91 69.44V83.57c0 1.15-.941 2.087-2.112 2.1-.092 0-9.382.097-20.222.097-2.477 0-4.714-.623-6.656-1.84H43.462v27.969a2.12 2.12 0 0 1-2.135 2.102"/>
        <path fill="#EEA220" d="M34 9.301C36.853 6.552 40.576 3.624 44.717 2c3.01 3.675 5.444 6.861 7.283 10"/>
        <path fill="#47318F" d="M51.854 14a2.163 2.163 0 0 1-1.876-1.055c-1.378-2.362-3.142-4.84-5.943-8.337-2.726 1.325-5.532 3.375-8.362 6.112a2.215 2.215 0 0 1-3.036.015A2.01 2.01 0 0 1 32 9.283a2.01 2.01 0 0 1 .622-1.458C36.368 4.2 40.154 1.621 43.869.155a2.206 2.206 0 0 1 2.512.638c2.604 3.195 5.3 6.637 7.346 10.145.278.476.347 1.04.192 1.567-.156.526-.523.97-1.019 1.233-.32.17-.68.26-1.046.26"/>
        <path fill="#F1CF98" d="M48.938 82L59 112H41V82z"/>
        <path fill="#47318F" d="M43.311 109.772h12.662L47.425 83.75H43.31v26.022h.002zM58.928 114H41.154A2.135 2.135 0 0 1 39 111.887V81.635c0-1.167.964-2.113 2.154-2.113h7.84a2.15 2.15 0 0 1 2.05 1.465l9.937 30.252a2.08 2.08 0 0 1-.31 1.892 2.168 2.168 0 0 1-1.743.869zm27.05-40.079c-.75 0-1.546-.01-2.245-.04-2.241-.038-4.108-1.714-4.366-3.92a2.278 2.278 0 0 1-.01-.219V66.29c0-1.264 1.044-2.29 2.333-2.29 1.29 0 2.333 1.026 2.333 2.29v3.018c1.861.077 4.544-.003 4.57-.003A2.317 2.317 0 0 1 91 71.521a2.29 2.29 0 0 1-.635 1.645 2.33 2.33 0 0 1-1.623.717c-.078 0-1.335.038-2.763.038z"/>
        <path fill="#28AAE1" d="M6.404 33c-1.122 4.478-2.026 9.243-.96 13.998L3 50.089 4.104 55l8.619-2.077L15 51.783"/>
        <path fill="#47318F" d="M3.283 56.7c-.4.001-.793-.109-1.134-.317a2.103 2.103 0 0 1-.954-1.31l-1.14-4.82a2.075 2.075 0 0 1 .431-1.811l1.887-2.26c-.85-4.71.075-9.36 1.222-13.702a2.148 2.148 0 0 1 2.577-1.413c1.1.28 1.79 1.363 1.571 2.47-1.263 4.784-1.915 8.782-.98 12.726a2.075 2.075 0 0 1-.43 1.81L4.47 50.308l.418 1.764 6.597-1.509 2.143-1.018a2.16 2.16 0 0 1 2.861.98 2.085 2.085 0 0 1-.995 2.808l-2.359 1.12a2.172 2.172 0 0 1-.446.154l-8.917 2.038a2.18 2.18 0 0 1-.485.057M50.888 61a2.141 2.141 0 0 1-1.511-.61 2.107 2.107 0 0 1-.634-1.492c0-2.55-2.062-4.627-4.6-4.627-2.536 0-4.599 2.077-4.599 4.627A2.124 2.124 0 0 1 37.402 61a2.141 2.141 0 0 1-1.511-.61 2.107 2.107 0 0 1-.634-1.492c0-4.872 3.976-8.825 8.887-8.834 4.898 0 8.886 3.964 8.886 8.834A2.124 2.124 0 0 1 50.888 61m26.97 0a2.124 2.124 0 0 1-2.143-2.102c0-2.55-2.062-4.627-4.6-4.627-2.536 0-4.601 2.077-4.601 4.627A2.124 2.124 0 0 1 64.374 61a2.141 2.141 0 0 1-1.511-.61 2.107 2.107 0 0 1-.634-1.492c0-4.872 3.976-8.825 8.887-8.834 4.898 0 8.884 3.964 8.884 8.834A2.124 2.124 0 0 1 77.858 61"/>
        <path fill="#28AAE1" d="M36.808 41.193s.717 1.494 2.973 3.066c3.457 2.403 10.325 3.063 13.299 2.605l3.264-.505L84 42.01 69.689 34.98C65.096 15.306 47.99 5.875 30.552 9.923A34.71 34.71 0 0 0 25 11.713"/>
        <path fill="#FFF" d="M51.04 49c-3.66 0-9.146-.827-12.414-3.098-2.636-1.827-3.568-3.668-3.665-3.871l3.84-1.823-.019-.036c.008.01.589 1.084 2.278 2.258 2.76 1.915 8.904 2.664 11.697 2.234l3.255-.502 20.903-3.282-8.231-4.036a2.119 2.119 0 0 1-1.132-1.419c-2.065-8.834-6.815-15.741-13.733-19.976-6.578-4.028-14.635-5.218-22.687-3.354a32.222 32.222 0 0 0-5.183 1.67 2.13 2.13 0 0 1-2.784-1.132 2.122 2.122 0 0 1-.007-1.624c.214-.52.625-.934 1.143-1.148a36.723 36.723 0 0 1 5.866-1.89c9.15-2.118 18.34-.746 25.88 3.872 7.533 4.61 12.977 12.269 15.406 21.639l13.36 6.551a2.114 2.114 0 0 1 1.163 2.222 2.105 2.105 0 0 1-1.772 1.768l-27.537 4.325-3.258.5c-.785.108-1.577.159-2.37.151"/>
        <path fill="#EEA220" d="M19.487 56s-26.546-21.411-7.77-53C27.25 10.371 36.458 21.052 37 40.807"/>
        <path fill="#FFF" d="M19.482 58c-.5 0-.984-.17-1.37-.485-.284-.23-7.012-5.752-11.417-15.355C2.61 33.258-.145 19.076 9.923 2.052a2.176 2.176 0 0 1 2.81-.836C30.384 9.633 38.485 21.816 39 40.71c.013.56-.2 1.1-.593 1.504a2.148 2.148 0 0 1-1.498.649c-1.178.034-2.162-.878-2.202-2.04-.46-16.71-7.08-27.263-22.043-34.938-6.42 11.78-7.134 23.347-2.117 34.41 3.976 8.761 10.252 13.942 10.314 13.993a2.07 2.07 0 0 1 .276 2.956 2.165 2.165 0 0 1-1.654.755"/>
        <path fill="#EEA220" d="M17 22s7.112 10.015 8 22"/>
        <path fill="#FFF" d="M25.138 46c-1.111.003-2.038-.835-2.127-1.925-.832-10.856-7.548-20.153-7.615-20.25a2.038 2.038 0 0 1-.367-1.55 2.06 2.06 0 0 1 .866-1.347 2.171 2.171 0 0 1 2.977.485c.306.414 7.476 10.308 8.398 22.354a2.064 2.064 0 0 1-.568 1.575 2.137 2.137 0 0 1-1.564.658m41.845-14.613l-6.333 1.089c-1.978.344-3.87-.943-4.239-2.885l-1.508-8.325c-.338-1.943.989-3.788 2.965-4.123l6.332-1.089c1.979-.34 3.887.96 4.237 2.885l1.51 8.325c.339 1.943-.988 3.789-2.964 4.123"/>
        <path fill="#28AAE1" d="M64.55 17.213c-.082 0-.165.007-.246.02l-6.71 1.138c-.787.138-1.316.862-1.188 1.628l1.59 8.63c.146.766.904 1.275 1.696 1.139l6.71-1.14c.38-.062.72-.27.943-.575.223-.306.311-.685.246-1.053L66 18.373c-.138-.673-.746-1.158-1.454-1.16M59.431 34a5.98 5.98 0 0 1-3.347-1.022 5.56 5.56 0 0 1-2.412-3.62l-1.588-8.629a5.493 5.493 0 0 1 .982-4.206 5.83 5.83 0 0 1 3.765-2.298l6.71-1.14c3.178-.537 6.22 1.506 6.784 4.556l1.585 8.629a5.398 5.398 0 0 1-.97 4.191c-.898 1.232-2.24 2.054-3.777 2.315l-6.71 1.137c-.338.057-.68.086-1.022.087"/>
        <path fill="#FFF" d="M66.911 31.621l-1.925.324c-2.024.343-3.96-.942-4.339-2.88l-1.593-8.567a3.452 3.452 0 0 1 .627-2.663 3.737 3.737 0 0 1 2.407-1.456l1.925-.324c2.025-.343 3.96.942 4.34 2.88l1.593 8.567c.347 1.941-1.011 3.785-3.035 4.12"/>
        <path fill="#47318F" d="M64.683 18.172c-.081 0-.162.007-.242.02l-1.946.332c-.774.137-1.293.854-1.167 1.613l1.562 8.544c.143.76.887 1.264 1.665 1.128l1.946-.335c.374-.062.708-.266.927-.569a1.37 1.37 0 0 0 .24-1.043l-1.561-8.542a1.45 1.45 0 0 0-1.427-1.148M64.298 34a5.857 5.857 0 0 1-3.287-1.01 5.508 5.508 0 0 1-2.369-3.587l-1.56-8.544a5.473 5.473 0 0 1 .965-4.164 5.72 5.72 0 0 1 3.698-2.275l1.946-.335c3.12-.532 6.11 1.49 6.663 4.51l1.557 8.544a5.378 5.378 0 0 1-.952 4.15 5.74 5.74 0 0 1-3.71 2.293l-1.944.33a5.918 5.918 0 0 1-1.007.088"/>
    </g>
</svg>
