<svg xmlns="http://www.w3.org/2000/svg" width="118" height="26" viewBox="0 0 118 26">
    <g fill="none" fill-rule="evenodd">
        <ellipse cx="12" cy="13" fill="#FFF" rx="12" ry="13"/>
        <path fill="#231F20" d="M15 19.879a59.933 59.933 0 0 1-14-.752l6.243-7.786c.126-.152.251-.341.48-.341.228 0 .36.19.48.34L15 19.88zM15.557 20l-6.59-8.763c-.396-.504-.622-.912-.967-.787l3.122-4.093A.831.831 0 0 1 11.688 6c.224.02.429.134.566.311L22 19.241c-2.13.386-4.282.64-6.443.759M11.992 22.287A34.898 34.898 0 0 0 21 21l-.415.713A29.845 29.845 0 0 1 11.992 23a30.218 30.218 0 0 1-8.555-1.26L3 21a34.952 34.952 0 0 0 9.008 1.287"/>
        <path fill="#00853F" d="M2.373 18.396a11.259 11.259 0 0 1-1.145-5.048c0-6.309 4.541-12.042 10.764-12.042 6.222 0 10.791 5.733 10.791 12.042 0 1.757-.393 3.49-1.145 5.06l1.106.58A13.286 13.286 0 0 0 24 13.348C24 6.348 18.856 0 11.992 0 5.128 0 0 6.384 0 13.348A12.678 12.678 0 0 0 1.278 19l1.095-.604zM11.497 23.063c2.868.016 5.725-.34 8.503-1.063a11.067 11.067 0 0 1-8.5 4A11.067 11.067 0 0 1 3 22a32.995 32.995 0 0 0 8.497 1.063"/>
        <path fill="#FFF" d="M40 15.016c0 .195 0 .402-.039.592-.094 1.918-.7 3.392-2.742 3.392C34.2 19 34 16.952 34 14.151V12.66C34.078 9.99 34.278 8 37.22 8c1.664 0 2.558.924 2.686 2.717.027.218.04.438.038.658v.148h-1.809c-.078-.67 0-1.93-.916-1.93-1.249 0-1.326 1.355-1.326 2.255v3.304c0 .87.06 2.28 1.326 2.28 1.01 0 .888-1.736.927-2.405L40 15.016z"/>
        <path fill="#FFF" fill-rule="nonzero" d="M41 12.596C41 10.94 41.857 10 43.435 10 45.756 10 46 11.264 46 13.337v1.025h-3.335v1.104c0 .997.374 1.185.873 1.185s.77-.416.77-1.265v-.165h1.665v.217c0 1.577-.678 2.562-2.305 2.562C41.781 18 41 17.083 41 14.954v-2.358zm3.335.422v-.66c0-.77-.206-1.014-.873-1.014-.77 0-.797.57-.797 1.184v.49h1.67z"/>
        <path fill="#FFF" d="M49.722 11.004c.36-.761 1.182-1.156 1.972-.95.79.208 1.333.961 1.305 1.809V18h-1.694v-5.196c0-.76-.085-1.257-.735-1.286h-.04c-.56 0-.808.584-.808 1.315V18H48v-7.797h1.722v.8zM57 17.93c-.261.03-.533.07-.831.07-.768 0-1.498-.233-1.498-1.299V11.46H54v-1.328h.655V8h1.652v2.132H57v1.31h-.693v4.822c0 .233.256.274.453.274.08.007.16.007.24 0v1.392z"/>
        <path fill="#FFF" fill-rule="nonzero" d="M58 12.596C58 10.94 58.861 10 60.438 10 62.756 10 63 11.264 63 13.337v1.025h-3.332v1.104c0 .997.369 1.185.873 1.185.503 0 .769-.416.769-1.265v-.165h1.663v.217c0 1.577-.677 2.562-2.308 2.562-1.88 0-2.665-.917-2.665-3.046v-2.358zm3.332.422v-.66c0-.77-.206-1.014-.873-1.014-.769 0-.79.57-.79 1.184v.49h1.663z"/>
        <path fill="#FFF" d="M66.71 10.996c.365-.756 1.186-1.148 1.976-.941.79.206 1.335.955 1.313 1.802V18h-1.732v-5.201c0-.761-.078-1.258-.73-1.288h.005c-.562 0-.81.585-.81 1.317V18H65v-7.805h1.732l-.022.801zM72.74 11.004c.36-.761 1.176-1.156 1.961-.95.785.208 1.326.961 1.298 1.809V18h-1.713v-5.196c0-.76-.078-1.257-.725-1.286h-.04c-.557 0-.803.584-.803 1.315V18H71v-7.797h1.718l.023.8z"/>
        <path fill="#FFF" fill-rule="nonzero" d="M78 9.568V8h2v1.568h-2zM78 18v-7.527h2v7.499L78 18zM84.443 17.8a1.269 1.269 0 0 1-.111-.569 1.476 1.476 0 0 1 0-.216c-.167.29-.39.539-.654.729-.233.162-.503.25-.781.256C81.579 18 81 17.283 81 15.722c0-1.736 1.142-2.152 2.423-2.721.568-.257.845-.524.845-.968-.003-.1-.015-.2-.037-.296-.08-.336-.33-.393-.77-.393-.713 0-.851.381-.851 1.025v.08h-1.562v-.052c0-1.418.451-2.397 2.476-2.397 2.024 0 2.338 1.139 2.338 2.073v4.657c.003.36.05.718.138 1.065l-1.557.006zm-.223-3.985c-.404.296-.893.57-1.323.968a1.222 1.222 0 0 0-.276.917c0 .569.164.968.77.968.967 0 .792-1.304.829-2.033v-.82z"/>
        <path fill="#FFF" d="M88 18V8h2v10zM101 15.016c0 .195 0 .402-.044.592-.09 1.918-.694 3.392-2.742 3.392C95.194 19 95 16.952 95 14.151V12.66C95.078 9.99 95.272 8 98.214 8c1.665 0 2.558.924 2.692 2.717.027.218.04.438.038.658v.148h-1.809c-.078-.67 0-1.93-.921-1.93-1.25 0-1.327 1.355-1.327 2.255v3.304c0 .87.067 2.28 1.327 2.28 1.01 0 .893-1.736.932-2.405l1.854-.011z"/>
        <path fill="#FFF" fill-rule="nonzero" d="M104.414 18c-2.033 0-2.414-1.103-2.414-3.605v-.13c0-2.599.043-4.265 2.527-4.265s2.462 1.666 2.473 4.264v.131c0 2.49-.365 3.594-2.36 3.594h-.226V18zm-.783-2.678c0 .927.075 1.33.874 1.33.8 0 .827-.403.827-1.33v-2.53c0-.711 0-1.439-.827-1.439-.826 0-.874.728-.874 1.439v2.53zM112.445 17.8a1.208 1.208 0 0 1-.117-.569.995.995 0 0 1 0-.216c-.165.291-.388.54-.653.729a1.41 1.41 0 0 1-.78.256c-1.316 0-1.895-.717-1.895-2.278 0-1.736 1.146-2.152 2.426-2.721.562-.257.838-.524.838-.968 0-.1-.012-.2-.037-.296-.074-.336-.324-.393-.764-.393-.717 0-.855.381-.855 1.025v.08h-1.555v-.052c0-1.418.451-2.397 2.474-2.397 2.022 0 2.335 1.139 2.335 2.073v4.657c0 .36.047.719.138 1.065l-1.555.006zm-.228-3.985c-.404.296-.892.57-1.317.968-.21.249-.311.583-.276.917 0 .569.16.968.765.968.966 0 .79-1.304.828-2.033v-.82z"/>
        <path fill="#FFF" d="M116 18V8h2v10z"/>
    </g>
</svg>
