<svg xmlns="http://www.w3.org/2000/svg" xmlns:xlink="http://www.w3.org/1999/xlink" width="75" height="42" viewBox="0 0 75 42">
    <defs>
        <linearGradient id="a" x1="50.026%" x2="50.026%" y1="99.952%" y2=".012%">
            <stop offset="0%" stop-color="#FFF"/>
            <stop offset="100%" stop-color="#00AEEF"/>
        </linearGradient>
        <path id="b" d="M32.265.003c.3 2.095 1.698 3.625 3.21 4.92 1.276 1.09 2.546 2.195 3.735 3.369 1.752 1.722 2.567 3.869 2.731 6.283.076 1.148.136 2.296-.207 3.564-.812-2.841-2.643-4.747-4.76-6.446-.778-.626-1.488-1.338-2.21-2.035-2.64-2.543-3.093-5.72-2.547-9.184.025-.155.037-.316.054-.474l-.006.003zm-.08 12.425c.632 2.999 2.387 5.183 4.812 6.888 1.822 1.263 3.656 2.511 4.59 4.684.112-.241.18-.5.201-.766.283-3.35-.996-6.028-3.563-8.063-2.417-1.905-4.737-3.86-5.892-6.945a8.824 8.824 0 0 0-.147 4.202z"/>
    </defs>
    <g fill="none" fill-rule="nonzero">
        <g>
            <use fill="url(#a)" xlink:href="#b"/>
            <use fill="#D8D8D8" xlink:href="#b"/>
        </g>
        <path fill="#FFF" d="M0 27h6.46c1.644 0 2.94.47 3.764 1.328a3.44 3.44 0 0 1 .964 2.489v.041c0 1.795-.987 2.767-2.057 3.347 1.687.599 2.869 1.61 2.869 3.646v.03C12 40.573 9.883 42 6.673 42H0V27zm5.944 6.326c1.627 0 2.717-.667 2.717-2.037v-.045c0-1.178-.907-1.908-2.53-1.908H2.49v3.99h3.453zm.74 6.35c1.721 0 2.777-.706 2.777-2.058v-.036c0-1.268-.967-2.019-2.96-2.019H2.484v4.113h4.2zM20.323 27h2.346L29 42h-2.673l-1.46-3.596H18.06L16.58 42H14l6.323-15zm3.619 9.083l-2.486-5.955-2.47 5.955h4.956zM32 27h2.431l7.992 10.37V27H45v15h-2.193L34.58 31.328V42H32zM49.008 27h5.598C57.913 27 60 28.99 60 32.012v.045c0 3.365-2.546 5.12-5.677 5.12h-2.828V42H49l.008-15zm5.394 7.8c1.887 0 3.064-1.114 3.064-2.69v-.041c0-1.758-1.197-2.69-3.064-2.69h-2.899v5.4l2.9.021zM62 35.5V27h2.672v8.394c0 2.746 1.453 4.22 3.84 4.22 2.388 0 3.819-1.392 3.819-4.12V27H75v8.374C75 39.787 72.44 42 68.47 42S62 39.784 62 35.5z"/>
    </g>
</svg>
